<svg width="376" height="55" viewBox="0 0 376 55" fill="none" xmlns="http://www.w3.org/2000/svg">
<path d="M186.136 39H190.417L195.267 22.1658H195.331L200.164 39H204.446L211.176 15.1272H206.538L202.143 32.6588H202.111L197.407 15.1272H193.174L188.487 32.6588H188.455L184.06 15.1272H179.422L186.136 39ZM218.312 39.2595C223.405 39.2595 226.762 35.724 226.762 30.4532C226.762 25.1499 223.388 21.6144 218.312 21.6144C213.236 21.6144 209.863 25.1499 209.863 30.4532C209.863 35.724 213.236 39.2595 218.312 39.2595ZM218.312 35.8537C215.847 35.8537 214.144 33.7454 214.144 30.4532C214.128 27.1447 215.831 25.0039 218.312 25.0039C220.777 25.0039 222.48 27.1447 222.48 30.4532C222.48 33.7454 220.761 35.8537 218.312 35.8537ZM229.081 39H233.298V29.2368C233.298 26.6744 234.838 25.377 236.736 25.377C237.482 25.377 238.325 25.4905 238.698 25.6202V21.7604C238.374 21.6793 237.887 21.6144 237.352 21.6144C235.309 21.6144 233.898 22.7659 233.265 24.8418H233.135V21.8739H229.081V39ZM240.596 39H244.829V33.3562L246.353 31.7506L251.835 39H256.878L249.564 29.2855L256.473 21.8739H251.494L245.072 28.6368H244.829V15.1272H240.596V39ZM272.318 27.2582C272.221 23.7389 269.399 21.6306 265.214 21.6306C261.046 21.6306 258.273 23.6416 258.273 26.8366C258.273 29.399 259.927 31.0857 263.301 31.783L266.171 32.3831C267.534 32.675 268.458 33.1616 268.458 34.1995C268.458 35.3672 267.274 36.0646 265.441 36.0646C263.495 36.0646 262.263 35.2861 262.084 33.6481H257.884C258.16 37.2809 261.111 39.2757 265.458 39.2757C269.626 39.2757 272.723 37.2485 272.723 33.8589C272.723 31.3127 270.972 29.8855 267.761 29.2044L264.712 28.5719C263.22 28.2475 262.457 27.6312 262.457 26.6906C262.457 25.5716 263.625 24.8255 265.279 24.8255C267.063 24.8255 268.312 25.7662 268.344 27.2582H272.318ZM281.595 39.0811C282.649 39.0811 283.443 39.0162 283.914 38.9676L283.638 35.5618C283.378 35.5942 282.941 35.6267 282.47 35.6267C281.335 35.6267 280.54 35.3672 280.54 33.6805V25.2472H283.816V21.8739H280.54V17.6248H276.307V21.8739H273.875V25.2472H276.307V34.3779C276.307 37.6863 278.481 39.0811 281.595 39.0811ZM286.395 39H290.612V29.2368C290.612 26.6744 292.152 25.377 294.05 25.377C294.796 25.377 295.639 25.4905 296.012 25.6202V21.7604C295.688 21.6793 295.201 21.6144 294.666 21.6144C292.623 21.6144 291.212 22.7659 290.579 24.8418H290.45V21.8739H286.395V39ZM304.705 39.2595C308.808 39.2595 311.776 37.0539 312.392 33.6643H308.5C308.046 35.1239 306.521 36.0321 304.754 36.0483C302.126 36.0321 300.569 34.0211 300.586 31.5235V31.4587H312.571V30.4369C312.571 25.1499 309.538 21.6144 304.624 21.6144C299.645 21.6144 296.434 25.231 296.434 30.4532C296.434 35.7726 299.645 39.2595 304.705 39.2595ZM300.602 28.7178C300.732 26.6419 302.272 24.8255 304.624 24.8255C306.846 24.8255 308.549 26.4149 308.63 28.7178H300.602ZM320.307 39.2595C323.048 39.2595 324.604 38.1405 325.432 36.5835H325.496V39H329.567V27.2582C329.567 23.9498 326.794 21.6144 322.35 21.6144C317.777 21.6144 315.068 24.0957 314.89 27.2582H318.993C319.139 25.8311 320.42 24.8418 322.318 24.8418C324.215 24.8418 325.35 25.7986 325.35 27.242V27.3231C325.35 28.4908 324.264 28.5557 321.101 28.8962C317.566 29.2693 314.387 30.2585 314.387 34.1508C314.387 37.5566 316.885 39.2595 320.307 39.2595ZM321.377 36.1619C319.626 36.1619 318.523 35.3996 318.506 34.086C318.49 32.5777 319.966 31.929 321.685 31.6857C323.339 31.4587 324.864 31.183 325.383 30.8586V32.675C325.383 34.6374 323.956 36.1619 321.377 36.1619ZM332.551 39H336.784V28.8476C336.784 26.4636 338.276 25.1661 340.093 25.1499C341.877 25.1661 343.093 26.3662 343.093 28.2151V39H347.196V28.5881C347.196 26.5609 348.429 25.1661 350.456 25.1499C352.159 25.1661 353.537 26.1716 353.537 28.3935V39H357.754V27.7448C357.754 23.7389 355.321 21.6144 352.078 21.6144C349.45 21.6144 347.407 23.0091 346.709 24.9066H346.645C346.077 22.9767 344.179 21.6144 341.763 21.6144C339.363 21.6144 337.433 22.9443 336.703 24.8742H336.638V21.8739H332.551V39ZM374.523 27.2582C374.426 23.7389 371.604 21.6306 367.42 21.6306C363.252 21.6306 360.478 23.6416 360.478 26.8366C360.478 29.399 362.133 31.0857 365.506 31.783L368.377 32.3831C369.739 32.675 370.663 33.1616 370.663 34.1995C370.663 35.3672 369.479 36.0646 367.647 36.0646C365.701 36.0646 364.468 35.2861 364.29 33.6481H360.089C360.365 37.2809 363.317 39.2757 367.663 39.2757C371.831 39.2757 374.929 37.2485 374.929 33.8589C374.929 31.3127 373.177 29.8855 369.966 29.2044L366.917 28.5719C365.425 28.2475 364.663 27.6312 364.663 26.6906C364.663 25.5716 365.83 24.8255 367.485 24.8255C369.269 24.8255 370.517 25.7662 370.55 27.2582H374.523Z" fill="#5555FF"/>
<path d="M67.5083 39H71.8384V30.2423H76.2497L80.9367 39H85.7696L80.6123 29.5287C83.4018 28.3935 84.8777 25.9932 84.8777 22.7659C84.8777 18.1924 81.9422 15.1272 76.4768 15.1272H67.5083V39ZM71.8384 26.6744V18.7438H75.8118C79.0392 18.7276 80.4826 20.2359 80.4664 22.7659C80.4826 25.2959 79.0392 26.6744 75.8281 26.6744H71.8384ZM93.165 39.2595C95.9058 39.2595 97.4628 38.1405 98.2899 36.5835H98.3547V39H102.425V27.2582C102.425 23.9498 99.6522 21.6144 95.2085 21.6144C90.635 21.6144 87.9266 24.0957 87.7482 27.2582H91.8514C91.9973 25.8311 93.2785 24.8418 95.176 24.8418C97.0735 24.8418 98.2088 25.7986 98.2088 27.242V27.3231C98.2088 28.4908 97.1222 28.5557 93.9597 28.8962C90.4242 29.2693 87.2455 30.2585 87.2455 34.1508C87.2455 37.5566 89.743 39.2595 93.165 39.2595ZM94.2354 36.1619C92.4839 36.1619 91.381 35.3996 91.3648 34.086C91.3486 32.5777 92.8244 31.929 94.5435 31.6857C96.1978 31.4587 97.7222 31.183 98.2412 30.8586V32.675C98.2412 34.6374 96.814 36.1619 94.2354 36.1619ZM111.832 39.2595C114.135 39.2595 115.951 38.2215 116.957 36.324H117.022V39H121.222V15.1272H116.989V24.5661H116.924C116.016 22.7172 114.135 21.6144 111.816 21.6144C107.81 21.6144 104.761 24.7445 104.745 30.4207C104.761 35.9835 107.712 39.2595 111.832 39.2595ZM113.048 35.8213C110.632 35.8213 109.01 33.9238 109.01 30.4207C109.01 26.9339 110.632 25.0688 113.048 25.0688C115.578 25.0688 117.184 27.1285 117.184 30.4207C117.184 33.713 115.594 35.8213 113.048 35.8213ZM124.222 39H128.455V21.8739H124.222V39ZM126.331 19.2466C127.693 19.2466 128.796 18.1762 128.796 16.8625C128.796 15.5489 127.693 14.4785 126.331 14.4785C124.968 14.4785 123.866 15.5489 123.866 16.8625C123.866 18.1762 124.968 19.2466 126.331 19.2466ZM139.013 39.2595C143.684 39.2595 146.36 36.2916 146.522 32.7074H142.451C142.322 34.5725 140.862 35.8213 139.029 35.8213C136.661 35.8213 135.072 33.7454 135.072 30.4532C135.072 27.1285 136.613 25.0202 139.013 25.0202C141.057 25.0202 142.24 26.4149 142.532 28.134H146.522C146.408 24.8093 143.684 21.6144 138.981 21.6144C134.018 21.6144 130.791 25.2472 130.791 30.4532C130.791 35.6429 134.05 39.2595 139.013 39.2595ZM148.711 15.1272V34.5563C148.711 37.6863 150.333 39.2108 153.723 39.1135C154.826 39.0973 155.539 38.9189 156.042 38.7729L155.328 35.5618C155.101 35.6429 154.858 35.7078 154.29 35.724C153.269 35.7402 152.944 35.205 152.928 33.8589V15.1272H148.711ZM165.108 39.2595C169.211 39.2595 172.179 37.0539 172.795 33.6643H168.903C168.449 35.1239 166.924 36.0321 165.156 36.0483C162.529 36.0321 160.972 34.0211 160.988 31.5235V31.4587H172.973V30.4369C172.973 25.1499 169.941 21.6144 165.027 21.6144C160.048 21.6144 156.837 25.231 156.837 30.4532C156.837 35.7726 160.048 39.2595 165.108 39.2595ZM161.005 28.7178C161.134 26.6419 162.675 24.8255 165.027 24.8255C167.248 24.8255 168.951 26.4149 169.032 28.7178H161.005Z" fill="#546474"/>
<rect width="54.8036" height="54.8036" rx="27.4018" fill="#5555FF"/>
<path d="M32.9258 38.7871C37.4003 38.7871 41.0276 33.7088 41.0276 27.4445C41.0276 21.1801 37.4003 16.1019 32.9258 16.1019" stroke="white" stroke-width="3.24074" stroke-linecap="round"/>
<ellipse cx="24.8245" cy="27.4445" rx="8.10185" ry="11.3426" stroke="white" stroke-width="3.24074"/>
<path d="M39.4077 20.963L36.167 20.963" stroke="white" stroke-width="3.24074" stroke-linecap="round"/>
<path d="M23.2037 24.2037L13.4814 24.2037" stroke="white" stroke-width="3.24074" stroke-linecap="round"/>
<path d="M23.2037 33.9259L13.4814 33.9259" stroke="white" stroke-width="3.24074" stroke-linecap="round"/>
<path d="M19.9634 29.0648L10.2412 29.0648" stroke="white" stroke-width="3.24074" stroke-linecap="round"/>
<path d="M39.4075 25.8241L37.7871 25.8241" stroke="white" stroke-width="3.24074" stroke-linecap="round"/>
<path d="M39.4075 30.6852L37.7871 30.6852" stroke="white" stroke-width="3.24074" stroke-linecap="round"/>
<path d="M37.7874 35.5463L36.167 35.5463" stroke="white" stroke-width="3.24074" stroke-linecap="round"/>
</svg>
