<svg width="128" height="128" viewBox="0 0 128 128" fill="none" xmlns="http://www.w3.org/2000/svg">
<rect width="128" height="128" rx="32" fill="#FFC555" fill-opacity="0.17"/>
<path d="M107.333 19.0962L69.2458 47.3733L76.3195 30.6905L107.333 19.0962Z" fill="#E17726" stroke="#E17726" stroke-width="0.128241" stroke-linecap="round" stroke-linejoin="round"/>
<path d="M19.7128 19.2885L57.2233 47.6618L50.5373 30.8132L19.7128 19.2885Z" fill="#E27625" stroke="#E27625" stroke-width="0.128241" stroke-linecap="round" stroke-linejoin="round"/>
<path d="M93.8108 84.4028L83.6729 99.8997L105.366 105.851L111.565 84.745L93.8108 84.4028Z" fill="#E27625" stroke="#E27625" stroke-width="0.128241" stroke-linecap="round" stroke-linejoin="round"/>
<path d="M15.7695 84.745L21.8759 105.851L43.3733 99.8997L33.3641 84.4028L15.7695 84.745Z" fill="#E27625" stroke="#E27625" stroke-width="0.128241" stroke-linecap="round" stroke-linejoin="round"/>
<path d="M42.4775 58.3503L36.4482 67.3941L57.8965 68.3406L57.171 45.4496L42.4775 58.3503Z" fill="#E27625" stroke="#E27625" stroke-width="0.128241" stroke-linecap="round" stroke-linejoin="round"/>
<path d="M84.9534 58.34L70.0306 45.1611L69.5344 68.3407L90.9827 67.3932L84.9534 58.34Z" fill="#E27625" stroke="#E27625" stroke-width="0.128241" stroke-linecap="round" stroke-linejoin="round"/>
<path d="M43.3733 99.7916L56.3577 93.5295L45.1727 84.8836L43.3733 99.7916Z" fill="#E27625" stroke="#E27625" stroke-width="0.128241" stroke-linecap="round" stroke-linejoin="round"/>
<path d="M70.4962 93.5295L83.4805 99.7916L81.6811 84.8836L70.4962 93.5295Z" fill="#E27625" stroke="#E27625" stroke-width="0.128241" stroke-linecap="round" stroke-linejoin="round"/>
<path d="M83.4805 99.9567L70.4962 93.6362L71.5298 102.099L71.4166 105.659L83.4805 99.9567Z" fill="#D5BFB2" stroke="#D5BFB2" stroke-width="0.128241" stroke-linecap="round" stroke-linejoin="round"/>
<path d="M43.3733 99.9567L55.4372 105.659L55.3618 102.099L56.3577 93.6362L43.3733 99.9567Z" fill="#D5BFB2" stroke="#D5BFB2" stroke-width="0.128241" stroke-linecap="round" stroke-linejoin="round"/>
<path d="M55.6844 79.2091L45.0084 76.1366L52.5409 72.765L55.6844 79.2091Z" fill="#233447" stroke="#233447" stroke-width="0.128241" stroke-linecap="round" stroke-linejoin="round"/>
<path d="M71.3618 79.2091L74.4944 72.765L82.0379 76.1366L71.3618 79.2091Z" fill="#233447" stroke="#233447" stroke-width="0.128241" stroke-linecap="round" stroke-linejoin="round"/>
<path d="M43.6084 99.7917L45.4892 84.4028L33.4666 84.7426L43.6084 99.7917Z" fill="#CC6228" stroke="#CC6228" stroke-width="0.128241" stroke-linecap="round" stroke-linejoin="round"/>
<path d="M81.6531 84.4028L83.528 99.7917L93.6757 84.7426L81.6531 84.4028Z" fill="#CC6228" stroke="#CC6228" stroke-width="0.128241" stroke-linecap="round" stroke-linejoin="round"/>
<path d="M90.9827 67.475L69.5344 68.4332L71.5191 79.4976L74.6879 72.8356L82.3184 76.3213L90.9827 67.475Z" fill="#CC6228" stroke="#CC6228" stroke-width="0.128241" stroke-linecap="round" stroke-linejoin="round"/>
<path d="M45.1501 76.3213L52.7431 72.8356L55.9118 79.4976L57.8965 68.4332L36.4482 67.475L45.1501 76.3213Z" fill="#CC6228" stroke="#CC6228" stroke-width="0.128241" stroke-linecap="round" stroke-linejoin="round"/>
<path d="M36.4482 67.5712L45.4892 85.0761L45.1836 76.3611L36.4482 67.5712Z" fill="#E27525" stroke="#E27525" stroke-width="0.128241" stroke-linecap="round" stroke-linejoin="round"/>
<path d="M82.1888 76.3611L81.8455 85.0761L90.8864 67.5712L82.1888 76.3611Z" fill="#E27525" stroke="#E27525" stroke-width="0.128241" stroke-linecap="round" stroke-linejoin="round"/>
<path d="M57.7819 68.3406L55.7806 79.3687L58.3201 92.3858L58.8584 75.2477L57.7819 68.3406Z" fill="#E27525" stroke="#E27525" stroke-width="0.128241" stroke-linecap="round" stroke-linejoin="round"/>
<path d="M69.3355 68.3406L68.284 75.2101L68.7906 92.3858L71.3618 79.3687L69.3355 68.3406Z" fill="#E27525" stroke="#E27525" stroke-width="0.128241" stroke-linecap="round" stroke-linejoin="round"/>
<path d="M71.2749 79.3085L68.765 92.3721L70.5894 93.6362L81.697 84.9045L82.0379 76.1313L71.2749 79.3085Z" fill="#F5841F" stroke="#F5841F" stroke-width="0.128241" stroke-linecap="round" stroke-linejoin="round"/>
<path d="M45.0084 76.1313L45.3127 84.9045L56.4517 93.6362L58.2813 92.3721L55.7642 79.3085L45.0084 76.1313Z" fill="#F5841F" stroke="#F5841F" stroke-width="0.128241" stroke-linecap="round" stroke-linejoin="round"/>
<path d="M71.6232 105.522L71.7362 101.944L70.7829 101.099H56.3594L55.4438 101.944L55.5192 105.522L43.4694 99.7917L47.6782 103.252L56.2464 109.217H70.896L79.4642 103.252L83.6729 99.7917L71.6232 105.522Z" fill="#C0AC9D" stroke="#C0AC9D" stroke-width="0.128241" stroke-linecap="round" stroke-linejoin="round"/>
<path d="M70.6203 93.5389L68.7896 92.2896H58.2189L56.3882 93.5389L55.3958 101.908L56.3093 101.076H70.6993L71.6503 101.908L70.6203 93.5389Z" fill="#161616" stroke="#161616" stroke-width="0.128241" stroke-linecap="round" stroke-linejoin="round"/>
<path d="M109.126 49.085L112.335 33.489L107.524 19L70.7847 46.2949L84.9169 58.2574L104.887 64.1087L109.28 58.9464L107.37 57.5721L110.424 54.7782L108.095 52.9445L111.15 50.6137L109.126 49.085Z" fill="#763E1A" stroke="#763E1A" stroke-width="0.128241" stroke-linecap="round" stroke-linejoin="round"/>
<path d="M15 33.489L18.2462 49.085L16.1849 50.6137L19.2393 52.9445L16.9109 54.7782L19.9652 57.5721L18.0544 58.9464L22.4479 64.1087L42.4179 58.2574L56.55 46.2949L19.811 19L15 33.489Z" fill="#763E1A" stroke="#763E1A" stroke-width="0.128241" stroke-linecap="round" stroke-linejoin="round"/>
<path d="M104.616 64.2678L84.7178 58.4341L90.7297 67.545L81.7493 85.0761L93.6195 84.9222H111.277L104.616 64.2678Z" fill="#F5841F" stroke="#F5841F" stroke-width="0.128241" stroke-linecap="round" stroke-linejoin="round"/>
<path d="M42.4208 58.4341L22.497 64.2678L15.8657 84.9222H33.5453L45.3931 85.0761L36.4013 67.545L42.4208 58.4341Z" fill="#F5841F" stroke="#F5841F" stroke-width="0.128241" stroke-linecap="round" stroke-linejoin="round"/>
<path d="M69.3945 68.4047L70.6924 46.3493L76.4593 30.6379H50.6829L56.4499 46.3493L57.7477 68.4047L58.2443 75.3587L58.2819 92.482H68.8603L68.8979 75.3587L69.3945 68.4047Z" fill="#F5841F" stroke="#F5841F" stroke-width="0.128241" stroke-linecap="round" stroke-linejoin="round"/>
</svg>
