<svg width="129" height="128" viewBox="0 0 129 128" fill="none" xmlns="http://www.w3.org/2000/svg">
<rect x="0.5" width="128" height="128" rx="24" fill="#3B99FC"/>
<path d="M33.8911 44.5073C50.9177 27.8309 78.5321 27.8309 95.5588 44.5073L97.6063 46.5009C98.4684 47.3361 98.4684 48.6831 97.6063 49.5183L90.6016 56.3882C90.1706 56.7924 89.4971 56.7924 89.066 56.3882L86.2372 53.6133C74.3563 41.9749 55.0935 41.9749 43.2126 53.6133L40.1952 56.5768C39.7642 56.9809 39.0907 56.9809 38.6596 56.5768L31.628 49.7338C30.7659 48.8987 30.7659 47.5516 31.628 46.7165L33.8911 44.5073ZM110.053 58.7052L116.303 64.8207C117.165 65.6559 117.165 67.0029 116.303 67.8381L88.15 95.3986C87.2879 96.2338 85.9139 96.2338 85.0788 95.3986L65.1156 75.8396C64.9 75.624 64.5498 75.624 64.3343 75.8396L44.3711 95.3986C43.509 96.2338 42.135 96.2338 41.2998 95.3986L13.1466 67.8381C12.2845 67.0029 12.2845 65.6559 13.1466 64.8207L19.3969 58.7052C20.259 57.87 21.633 57.87 22.4681 58.7052L42.4313 78.2642C42.6469 78.4798 42.9971 78.4798 43.2126 78.2642L63.1758 58.7052C64.0379 57.87 65.4119 57.87 66.2471 58.7052L86.2103 78.2642C86.4258 78.4798 86.776 78.4798 86.9916 78.2642L106.955 58.7052C107.817 57.87 109.191 57.87 110.053 58.7052Z" fill="white"/>
</svg>
