<svg width="42" height="36" viewBox="0 0 42 36" fill="none" xmlns="http://www.w3.org/2000/svg">
<path d="M23.2883 28.5874C22.8782 24.113 23.5283 18.0827 26.1584 15.1611C28.9282 15.777 34.4678 13.8763 36.4822 10.0216C38.309 6.52625 37.9777 1.39668 39 4.34789e-10C26.9556 -8.50776e-05 24.9572 12.4857 21.5082 21.8361C18.958 14.9225 10.9546 10.2638 4 13.1054C6.82742 15.0655 8.5904 19.8987 12.4213 20.3312C13.6267 20.4673 15.8156 20.3312 17.2573 17.5987C20.6689 20.3779 20.1716 23.748 19.7281 28.5874C19.5491 30.5405 18.8753 32.3981 18.9743 33.9476C19.1163 36.6841 23.9 36.6841 24.0421 33.9476C24.1411 32.3981 23.4672 30.5405 23.2883 28.5874Z" fill="url(#paint0_linear_12824_214816)"/>
<defs>
<linearGradient id="paint0_linear_12824_214816" x1="21.5001" y1="4.34786e-10" x2="21.5001" y2="36.0001" gradientUnits="userSpaceOnUse">
<stop stop-color="#00FF19"/>
<stop offset="1" stop-color="#00B81E"/>
</linearGradient>
</defs>
</svg>
