<svg width="40" height="40" viewBox="0 0 40 40" fill="none" xmlns="http://www.w3.org/2000/svg">
<path d="M0 20C0 8.95431 8.95431 0 20 0V0C31.0457 0 40 8.95431 40 20V20C40 31.0457 31.0457 40 20 40V40C8.95431 40 0 31.0457 0 20V20Z" fill="#5555FF"/>
<path d="M20.4912 28.2733C20.1891 24.9863 20.6681 20.5564 22.6057 18.4101C24.6462 18.8625 28.7273 17.4662 30.2113 14.6345C31.557 12.0668 31.3131 8.29847 32.0664 7.27246C23.193 7.27239 21.7208 16.4447 19.1798 23.3137C17.301 18.2348 11.4048 14.8124 6.28125 16.9C8.36424 18.3398 9.66306 21.8904 12.4854 22.2082C13.3733 22.3081 14.986 22.2082 16.0481 20.2008C18.5614 22.2424 18.1951 24.7182 17.8684 28.2733C17.7365 29.7081 17.2401 31.0727 17.313 32.211C17.4177 34.2213 20.9419 34.2213 21.0465 32.211C21.1195 31.0727 20.623 29.7081 20.4912 28.2733Z" fill="url(#paint0_linear_1038_14310)"/>
<defs>
<linearGradient id="paint0_linear_1038_14310" x1="19.1738" y1="7.27246" x2="19.1738" y2="33.7188" gradientUnits="userSpaceOnUse">
<stop stop-color="#00FF19"/>
<stop offset="1" stop-color="#00B81E"/>
</linearGradient>
</defs>
</svg>
